<svg xmlns="http://www.w3.org/2000/svg" viewBox="0 0 283.46 283.46" xmlns:v="https://vecta.io/nano"><style><![CDATA[.F{stroke:#fff}.G{stroke-miterlimit:10}]]></style><defs><style>@font-face{font-family:"Didact Gothic";src:url("https://fonts.googleapis.com/css2?family=Didact+Gothic&amp;display=swap")}</style></defs><g fill="#b5cfd8"><path d="M135.46 33.46L71.44 59.63 44.68 123.4l26.17 64 63.77 26.76 64-26.17 26.76-63.76-26.17-64.02-63.76-26.76z"/><path d="M135.34 33.5L71.16 59.75l-26.83 63.93 26.23 64.18 63.94 26.83 64.18-26.23 26.83-63.94-26.24-64.18-63.93-26.83z"/></g><g fill="none" class="F G"><path d="M148.26 37.13L83.58 63.57 56.54 128l26.44 64.7 64.44 27.04 64.68-26.45 27.04-64.43-26.44-64.68-64.44-27.04z"/><path d="M56.47 127.82l155.55 65.28"/><path d="M83.5 63.4l128.5 129.7"/><path d="M239.07 128.67L83.5 63.4"/><path d="M147.32 36.95l-.85 182.6"/><path d="M147.77 90.35L83.5 63.4m63.97 64.55L83.62 63.5"/><path d="M146.9 128.53l.14-38.43"/><path d="M210.1 191.98l-63.85-64.44m65.5 66.18l-65.04-27.66"/><path d="M146.75 166.34l.15-38.43"/></g><path d="M148.2 38.05L83.52 64.5l-27.04 64.43 26.44 64.68 64.44 27.05 64.68-26.45 27.04-64.43-26.44-64.68-64.43-27.04z" fill="#7393a7" stroke-width="2" class="F G"/><g fill="#00598a" class="F G"><path d="M56.4 128.74l155.56 65.28M83.45 64.3L211.97 194M239 129.6L83.45 64.3"/><path d="M147.26 37.86l-.84 182.6"/><path d="M147.7 91.27L83.45 64.3m63.95 64.56L83.57 64.43"/><path d="M146.84 129.45l.15-38.43m63.04 101.88l-63.13-64.37m64.8 66.1l-65.05-27.66"/><path d="M146.7 167.25l.15-38.42"/></g><text transform="translate(97.76 244.36)" font-size="21.14" font-family="DidactGothic-Regular,Didact Gothic">octagons </text></svg>