<svg xmlns="http://www.w3.org/2000/svg" viewBox="0 0 283.46 283.46">
  <defs>
    <style>
      .cls-1 {
        fill: #b5cfd8;
      }

      .cls-2 {
        fill: none;
      }

      .cls-2, .cls-3, .cls-4 {
        stroke: #fff;
        stroke-miterlimit: 10;
      }

      .cls-3 {
        fill: #7393a7;
        stroke-width: 2px;
      }

      .cls-4 {
        fill: #00598a;
      }

      .cls-5 {
        font-size: 21.14px;
        fill: #fff;
        font-family: DidactGothic-Regular, Didact Gothic;
      }
    </style>
  </defs>
  <g id="Layer_1" data-name="Layer 1">
    <g>
      <g>
        <polygon class="cls-1" points="135.46 33.46 71.44 59.63 44.68 123.4 70.85 187.41 134.62 214.17 198.63 188 225.39 124.24 199.22 60.22 135.46 33.46"/>
        <polygon class="cls-1" points="135.34 33.51 71.16 59.75 44.33 123.68 70.56 187.86 134.5 214.69 198.68 188.46 225.51 124.52 199.27 60.34 135.34 33.51"/>
        <polygon class="cls-2" points="148.26 37.13 83.58 63.57 56.54 128 82.98 192.69 147.42 219.73 212.1 193.28 239.14 128.85 212.7 64.17 148.26 37.13"/>
        <line class="cls-2" x1="56.47" y1="127.82" x2="212.02" y2="193.1"/>
        <line class="cls-2" x1="83.51" y1="63.39" x2="212.02" y2="193.1"/>
        <line class="cls-2" x1="239.07" y1="128.67" x2="83.51" y2="63.39"/>
        <line class="cls-2" x1="147.32" y1="36.95" x2="146.47" y2="219.54"/>
        <line class="cls-2" x1="147.77" y1="90.35" x2="83.51" y2="63.39"/>
        <line class="cls-2" x1="147.47" y1="127.95" x2="83.62" y2="63.51"/>
        <line class="cls-2" x1="146.9" y1="128.53" x2="147.04" y2="90.1"/>
        <line class="cls-2" x1="210.09" y1="191.98" x2="146.24" y2="127.54"/>
        <line class="cls-2" x1="211.76" y1="193.72" x2="146.72" y2="166.06"/>
        <line class="cls-2" x1="146.75" y1="166.34" x2="146.9" y2="127.91"/>
        <polygon class="cls-3" points="148.21 38.05 83.52 64.49 56.48 128.92 82.92 193.6 147.36 220.65 212.04 194.2 239.08 129.77 212.64 65.09 148.21 38.05"/>
        <line class="cls-4" x1="56.41" y1="128.74" x2="211.97" y2="194.02"/>
        <line class="cls-4" x1="83.45" y1="64.31" x2="211.97" y2="194.02"/>
        <line class="cls-4" x1="239.01" y1="129.59" x2="83.45" y2="64.31"/>
        <line class="cls-4" x1="147.26" y1="37.86" x2="146.42" y2="220.46"/>
        <line class="cls-4" x1="147.71" y1="91.27" x2="83.45" y2="64.31"/>
        <line class="cls-4" x1="147.41" y1="128.86" x2="83.57" y2="64.43"/>
        <line class="cls-4" x1="146.84" y1="129.45" x2="146.99" y2="91.02"/>
        <line class="cls-4" x1="210.03" y1="192.9" x2="146.9" y2="128.53"/>
        <line class="cls-4" x1="211.71" y1="194.64" x2="146.66" y2="166.98"/>
        <line class="cls-4" x1="146.69" y1="167.25" x2="146.84" y2="128.83"/>
      </g>
      <text class="cls-5" transform="translate(97.76 244.36)">octagons </text>
    </g>
  </g>
</svg>
