<svg xmlns="http://www.w3.org/2000/svg" viewBox="0 0 283.46 283.46">
  <defs>
    <style>
      .cls-1 {
        fill: #b5cfd8;
      }

      .cls-2 {
        fill: none;
      }

      .cls-2, .cls-3, .cls-4 {
        stroke: #fff;
        stroke-miterlimit: 10;
      }

      .cls-3 {
        fill: #7393a7;
        stroke-width: 2px;
      }

      .cls-4 {
        fill: #00598a;
      }
    </style>
  </defs>
  <g id="Layer_1" data-name="Layer 1">
    <g>
      <polygon class="cls-1" points="134.46 33.31 60.3 63.62 29.3 137.5 59.61 211.66 133.49 242.66 207.65 212.34 238.65 138.47 208.34 64.31 134.46 33.31"/>
      <polygon class="cls-1" points="134.32 33.36 59.97 63.76 28.89 137.83 59.28 212.18 133.35 243.26 207.7 212.87 238.78 138.8 208.39 64.45 134.32 33.36"/>
      <polygon class="cls-2" points="149.3 37.55 74.36 68.19 43.04 142.83 73.67 217.77 148.32 249.09 223.25 218.46 254.58 143.81 223.94 68.88 149.3 37.55"/>
      <line class="cls-2" x1="42.95" y1="142.62" x2="223.17" y2="218.25"/>
      <line class="cls-2" x1="74.28" y1="67.97" x2="223.17" y2="218.25"/>
      <line class="cls-2" x1="254.49" y1="143.6" x2="74.28" y2="67.97"/>
      <line class="cls-2" x1="148.2" y1="37.34" x2="147.22" y2="248.88"/>
      <line class="cls-2" x1="148.72" y1="99.22" x2="74.28" y2="67.97"/>
      <line class="cls-2" x1="148.38" y1="142.77" x2="74.41" y2="68.12"/>
      <line class="cls-2" x1="147.71" y1="143.44" x2="147.89" y2="98.93"/>
      <line class="cls-2" x1="220.92" y1="216.95" x2="146.95" y2="142.3"/>
      <line class="cls-2" x1="222.86" y1="218.96" x2="147.51" y2="186.92"/>
      <line class="cls-2" x1="147.54" y1="187.24" x2="147.72" y2="142.73"/>
      <polygon class="cls-3" points="149.23 38.62 74.3 69.25 42.97 143.9 73.61 218.83 148.25 250.16 223.19 219.52 254.51 144.88 223.88 69.94 149.23 38.62"/>
      <path class="cls-4" d="M43.55,142.62l180.22,75.63M74.88,68,255.09,143.6M148.8,37.34l-1,211.54m1.5-149.66L74.88,68m74.1,74.8L75,68.12M221.52,217l-73.14-74.57"/>
    </g>
  </g>
</svg>
